<?xml version="1.0" encoding="UTF-8" standalone="no"?>
<svg
   xmlns:dc="http://purl.org/dc/elements/1.1/"
   xmlns:cc="http://creativecommons.org/ns#"
   xmlns:rdf="http://www.w3.org/1999/02/22-rdf-syntax-ns#"
   xmlns:svg="http://www.w3.org/2000/svg"
   xmlns="http://www.w3.org/2000/svg"
   xmlns:sodipodi="http://sodipodi.sourceforge.net/DTD/sodipodi-0.dtd"
   xmlns:inkscape="http://www.inkscape.org/namespaces/inkscape"
   width="26.458334mm"
   height="26.458334mm"
   viewBox="0 0 26.458334 26.458334"
   version="1.1"
   id="svg8"
   inkscape:version="1.0.1 (3bc2e813f5, 2020-09-07)"
   sodipodi:docname="icon.svg">
  <defs
     id="defs2" />
  <sodipodi:namedview
     id="base"
     pagecolor="#ffffff"
     bordercolor="#666666"
     borderopacity="1.0"
     inkscape:pageopacity="0.0"
     inkscape:pageshadow="2"
     inkscape:zoom="5.6"
     inkscape:cx="8.3496458"
     inkscape:cy="40.020144"
     inkscape:document-units="mm"
     inkscape:current-layer="g3229"
     inkscape:document-rotation="0"
     showgrid="false"
     inkscape:snap-object-midpoints="true"
     inkscape:snap-center="true"
     inkscape:snap-text-baseline="true"
     inkscape:snap-page="true"
     inkscape:snap-smooth-nodes="true"
     inkscape:snap-midpoints="true"
     inkscape:snap-intersection-paths="true"
     inkscape:object-paths="true"
     inkscape:window-width="1920"
     inkscape:window-height="1013"
     inkscape:window-x="-9"
     inkscape:window-y="-9"
     inkscape:window-maximized="1" />
  <metadata
     id="metadata5">
    <rdf:RDF>
      <cc:Work
         rdf:about="">
        <dc:format>image/svg+xml</dc:format>
        <dc:type
           rdf:resource="http://purl.org/dc/dcmitype/StillImage" />
        <dc:title></dc:title>
      </cc:Work>
    </rdf:RDF>
  </metadata>
  <g
     inkscape:label="Layer 1"
     inkscape:groupmode="layer"
     id="layer1"
     transform="translate(-9.9925083,10.189269)">
    <g
       id="g3229"
       transform="matrix(0.06599951,0,0,0.06234602,-8.9535264,-15.747172)">
      <ellipse
         style="fill:#ef767a;stroke-width:19.1469;stroke-linejoin:round;fill-opacity:1"
         id="path871"
         cx="487.50677"
         cy="301.33548"
         rx="200.44341"
         ry="212.18944" />
      <path
         style="fill:#000000;stroke-width:1.98678"
         d="m 429.09995,455.80845 c -25.71216,-20.05991 -50.9764,-40.76692 -56.14277,-46.01556 -18.32013,-18.61195 -35.18163,-50.9686 -35.18163,-67.51235 0,-23.60997 18.7813,-50.01124 41.38303,-58.17295 18.53665,-6.6938 41.49844,-5.85018 57.02972,2.09532 6.81581,3.48681 15.42586,10.11135 19.13343,14.72118 l 6.74097,8.38151 -1.28889,-69.345 c -0.70891,-38.13976 -1.86566,-82.90141 -2.5706,-99.47032 l -1.28168,-30.12529 h 10.00753 10.00749 v 190.98299 c 0,105.04064 -0.24462,190.97175 -0.5436,190.95799 -0.29898,-0.0142 -21.58082,-16.4376 -47.293,-36.49752 z M 498.68046,301.6264 V 110.36499 h 10.0205 10.02052 l -1.29834,41.49334 c -0.71409,22.82132 -1.87561,67.58295 -2.58115,99.4703 l -1.2828,57.97697 6.73853,-8.38151 c 3.70622,-4.60983 12.31517,-11.23437 19.13098,-14.72118 10.19808,-5.21711 15.29178,-6.34406 28.7663,-6.36426 21.28244,-0.0319 36.09877,5.38965 49.71693,18.19226 20.10353,18.89954 24.31989,40.51087 13.59611,69.68793 -10.17268,27.67757 -21.90236,39.69214 -89.33976,91.50969 -20.92852,16.08105 -39.27493,30.23298 -40.76984,31.44875 -2.1696,1.76447 -2.71798,-36.37862 -2.71798,-189.05088 z m 42.55552,130.969 c 15.88095,-18.15045 36.21689,-50.26305 42.44058,-67.01813 6.5002,-17.49952 6.76703,-36.74547 0.6288,-45.35606 -14.7646,-20.71148 -45.68247,-19.90555 -62.07314,1.61811 -5.7059,7.49279 -6.22238,10.02276 -8.35453,40.92491 -2.04542,29.64476 -1.38116,74.49517 1.30599,88.17857 l 1.02524,5.22081 6.32028,-4.70577 c 3.47613,-2.58818 11.89421,-11.07628 18.70678,-18.86244 z"
         id="path2830"
         inkscape:connector-curvature="0"
         sodipodi:nodetypes="sssssscsscccscsscccsscsssssssssssssscss" />
    </g>
  </g>
</svg>
